<?xml version="1.0" encoding="utf-8"?>
<!-- Generator: Adobe Illustrator 22.1.0, SVG Export Plug-In . SVG Version: 6.00 Build 0)  -->
<svg version="1.1" id="Layer_1" xmlns="http://www.w3.org/2000/svg" xmlns:xlink="http://www.w3.org/1999/xlink" x="0px" y="0px"
	 viewBox="0 0 1077.3 919.1" style="enable-background:new 0 0 1077.3 919.1;" xml:space="preserve">
<style type="text/css">
	.st0{fill:#009245;}
	.st1{fill:#FFFFFF;}
	.st2{fill:#00FF00;}
	.st3{fill:#34C45A;}
	.st4{fill:#13B642;}
	.st5{fill:#00AD34;}
	.st6{fill:#25BD4F;}
</style>
<path class="st0" d="M526,102.5L526,102.5C526,102.4,526,102.4,526,102.5L526,102.5z"/>
<path class="st0" d="M526.1,102.7c0,0-0.1,0.1-0.1,0.2v-0.4L526.1,102.7z"/>
<path class="st1" d="M526,102.5L526,102.5C526,102.4,526,102.4,526,102.5L526,102.5z"/>
<path class="st1" d="M526.1,102.7c0,0-0.1,0.1-0.1,0.2v-0.4L526.1,102.7z"/>
<path class="st1" d="M526,102.5L526,102.5C526,102.4,526,102.4,526,102.5L526,102.5z"/>
<path class="st1" d="M526.1,102.7c0,0-0.1,0.1-0.1,0.2v-0.4L526.1,102.7z"/>
<path class="st1" d="M951.4,617.2l-0.1-0.2L951.4,617.2C951.4,617.2,951.4,617.2,951.4,617.2z"/>
<path class="st1" d="M954.3,603.4c0.1-0.2,0.1-0.3,0.2-0.5l0.3,0.2L954.3,603.4L954.3,603.4C954.3,603.4,954.3,603.4,954.3,603.4z"
	/>
<path class="st1" d="M951.4,617.2C951.4,617.2,951.4,617.2,951.4,617.2l-0.1-0.1L951.4,617.2z"/>
<path class="st1" d="M951.9,618l-0.6,0.2c0-0.3,0.1-0.6,0.1-0.9L951.9,618z"/>
<path class="st1" d="M954.3,603.4c0.1-0.2,0.1-0.3,0.2-0.5l0.3,0.2L954.3,603.4L954.3,603.4C954.3,603.4,954.3,603.4,954.3,603.4z"
	/>
<path class="st2" d="M526.2,102.5c-0.1,0.1-0.1,0.2-0.2,0.3v-0.4L526.2,102.5z"/>
<g>
	<path class="st3" d="M219.5,283.5L219.5,283.5l-0.1,0c-1.6,2-3.3,4-4.9,6.1c-1.5,1.9-3.1,3.9-4.6,5.8c-1.7,2.2-3.4,4.4-5.1,6.6
		c-0.9,1.2-1.8,2.4-2.6,3.5c-0.9,1.2-1.8,2.3-2.6,3.5c-0.7,0.9-1.3,1.7-1.9,2.6c0,0.1-0.1,0.1-0.1,0.2c-0.7,0.9-1.4,1.9-2,2.8
		c-1.2,1.6-2.3,3.3-3.5,5c-0.3,0.5-0.7,1-1,1.5c0,0.1-0.1,0.2-0.2,0.3c-1.3,1.8-2.5,3.7-3.8,5.5c-0.8,1.1-1.5,2.2-2.3,3.4
		c-0.5,0.8-1,1.6-1.6,2.4c-0.7,1-1.3,2-2,3c-0.7,1.1-1.4,2.1-2.1,3.2c-0.7,1.1-1.4,2.1-2,3.2c-1.1,1.7-2.2,3.5-3.3,5.2
		c-0.8,1.3-1.6,2.7-2.5,4c-0.2,0.3-0.3,0.5-0.5,0.8c-0.4,0.6-0.8,1.3-1.1,1.9c-0.4,0.6-0.7,1.2-1.1,1.9c-0.4,0.6-0.7,1.2-1.1,1.8
		c-1.1,1.9-2.2,3.7-3.2,5.6c-0.6,1-1.1,2-1.7,3c-0.5,0.9-1,1.8-1.5,2.6c-0.4,0.7-0.8,1.5-1.2,2.2c-0.3,0.5-0.6,1-0.8,1.5
		c-0.3,0.6-0.7,1.3-1,1.9c-1.2,2.1-2.3,4.3-3.5,6.5c-0.5,1-1,2-1.5,2.9c-0.3,0.7-0.7,1.4-1.1,2.1c-0.4,0.7-0.7,1.4-1,2.1
		C356.9,346.1,551,271,727.2,168.7c-2-1.2-4.1-2.5-6.1-3.7c-0.8-0.5-1.6-0.9-2.4-1.4c-1.4-0.8-2.8-1.6-4.2-2.4
		c0-0.1-0.1-0.1-0.1-0.1c-1.1-0.6-2.1-1.2-3.2-1.8l0,0c0,0-0.1,0-0.2-0.1c-0.8-0.4-1.7-0.9-2.5-1.3c-0.1-0.1-0.2-0.1-0.3-0.2
		c-0.1,0-0.1-0.1-0.2-0.1c0,0-0.1,0-0.1-0.1c-3.2-1.7-6.4-3.4-9.7-5.1c0,0-0.1,0-0.1,0c-0.1,0-0.2-0.1-0.3-0.1
		c-3.1-1.6-6.3-3.2-9.5-4.7c-0.8-0.4-1.6-0.8-2.5-1.2l-1.9-0.9c-0.9-0.4-1.8-0.8-2.8-1.3c-0.9-0.4-1.8-0.8-2.7-1.2
		c-0.1,0-0.3-0.1-0.4-0.2c-1-0.5-2-0.9-3.1-1.4c-0.3-0.2-0.7-0.3-1-0.5c-0.9-0.4-1.9-0.8-2.8-1.2c-2.1-0.9-4.2-1.8-6.3-2.6
		c-1.1-0.5-2.2-0.9-3.2-1.3c-0.3-0.1-0.6-0.2-0.9-0.3c-0.5-0.2-1-0.4-1.5-0.5c-10.8-4.2-21.7-7.8-32.7-10.9c-0.3-0.1-0.6-0.2-1-0.3
		c-4.5-1.3-8.9-2.4-13.4-3.5c0,0-0.1,0-0.2,0c-9.3-2.2-18.7-4.1-28.1-5.4l0,0c-0.1,0-0.1,0-0.2,0l-0.6,1.1l0,0l0.6-1.1l0-0.1
		c0.1,0,0.2,0,0.2,0l3.3-6.5l0.1-0.3l29.7-55.7l-16.5,8.8l-32.4,17.3v0h0L539.5,0l0,0v0l-28.9,79.1v0l-34.2-18.3l-16.1-8.6v0
		l33.3,62.4l0,0v0l0,0.1c-0.3,0-0.5,0.1-0.7,0.1c0.1-0.1,0.3-0.1,0.4-0.1c-30.8,4.5-61.1,13.6-90.5,26.3c-2.8,1.2-5.6,2.5-8.5,3.8
		c0,0,0,0,0,0c-2.8,1.3-5.6,2.6-8.4,4c-4.2,2.1-8.4,4.2-12.5,6.4c-1.4,0.8-2.8,1.5-4.1,2.2c-2.2,1.2-4.4,2.4-6.6,3.7
		c-2,1.1-3.9,2.2-5.8,3.4c-0.2,0.1-0.5,0.3-0.7,0.4c-2.1,1.2-4.1,2.5-6.2,3.7c-0.2,0.1-0.3,0.2-0.5,0.3c-3.8,2.4-7.6,4.8-11.4,7.2
		c-0.6,0.4-1.2,0.8-1.8,1.2c-1.8,1.2-3.7,2.4-5.5,3.6c-0.7,0.5-1.3,0.9-2,1.4c-3.6,2.5-7.3,5.1-10.9,7.7c-2,1.5-4.1,3-6.2,4.6
		c-1.9,1.4-3.7,2.8-5.5,4.2c-0.2,0.2-0.4,0.3-0.6,0.5c-2,1.6-4.1,3.2-6.1,4.8c-2,1.6-4,3.2-6,4.9c-3.9,3.2-7.7,6.4-11.4,9.7l-4.7-14
		l-0.1-0.4l-16-52.7l-16.6,54.5l0,0v0l-44.6-20.7l-31.8-14.8l35.2,75.7l0,0l-53,16.1l27.8,8.5l41.1,12.5L219.5,283.5
		c-0.1-0.1-0.1-0.1-0.1-0.1v0c0,0,0,0,0.1-0.1v0c0,0,0,0,0,0L219.5,283.5L219.5,283.5z M581.6,114.5L581.6,114.5
		C581.7,114.6,581.6,114.6,581.6,114.5c-0.1,0-0.1,0-0.2,0s-0.1,0-0.1,0l0,0l-0.2-0.4L581.6,114.5z M495.8,114.4
		c0.4-0.1,0.9-0.1,1.3-0.1c0.1,0,0.2,0,0.2,0c-0.3,0-0.5,0-0.7,0.1c-0.2,0-0.3,0-0.5,0.1c-0.2,0-0.3,0-0.5,0.1l-0.4,0.4l-0.2-0.3h0
		l-0.1-0.1C495.3,114.4,495.6,114.4,495.8,114.4z M280.1,220.6c0.6-0.5,1.2-1.1,1.8-1.6l0.5,1.6v0L280.1,220.6
		C280,220.6,280,220.6,280.1,220.6z M220.2,282.3L220.2,282.3L220.2,282.3L220.2,282.3z"/>
	<path class="st4" d="M1077.3,483.7l-82.4-13.3v0l16.4-52.9l0,0l-47.8,38.7l-0.2,0.2l-6.6,4.7c-3.3-10.2-7-20.5-11-30.6h0
		C694,562.8,409.1,640.9,106.8,648.9c0.1,0.5,0.2,1,0.3,1.5c0.2,1,0.4,2,0.6,3c0.4,1.6,0.7,3.1,1.1,4.6c0.4,1.5,0.8,3.1,1.2,4.6
		c0.4,1.5,0.8,3,1.2,4.6c0.8,3,1.7,6,2.6,9c0.5,1.5,0.9,3,1.4,4.5c0.5,1.4,1,2.9,1.5,4.4c0.5,1.4,1,2.8,1.5,4.2
		c0,0.1,0.1,0.2,0.1,0.3c0.5,1.4,1,2.8,1.6,4.1c1.1,2.9,2.3,5.8,3.5,8.7c1.2,2.8,2.4,5.5,3.7,8.2c7.1,15.3,15.5,29.8,25.1,43.4
		c55,4.8,110.8,7.2,167.2,7.2c228.8,0,448.1-40.1,651.5-113.6c0.1-0.3,0.2-0.6,0.2-0.9c0.4-2,0.8-4.1,1.2-6.2
		c0.4-2.1,0.8-4.2,1.1-6.3c0.2-1.3,0.4-2.6,0.6-3.9c0.1-0.7,0.2-1.4,0.3-2c0.4-2.8,0.7-5.6,1-8.4c0.2-1.6,0.3-3.3,0.5-4.9
		c0.3-3.3,0.6-6.7,0.8-10.1c0.1-1.7,0.2-3.4,0.3-5.1c0.1-1.8,0.1-3.5,0.2-5.3c0.1-1.7,0.1-3.3,0.1-5c0-1.7,0.1-3.5,0.1-5.2
		c0-3.5-0.1-7-0.2-10.4c-0.1-1.8-0.1-3.5-0.2-5.3c-0.1-1.7-0.2-3.3-0.3-5c-0.2-2.8-0.4-5.7-0.6-8.5c-0.1-1.2-0.2-2.5-0.3-3.7
		l3.2,0.7l0.2,0l62.1,19.2h0l-35.9-44.3L1077.3,483.7z M957.8,464.3c0,0,0,0.1,0,0.1C957.8,464.4,957.8,464.4,957.8,464.3
		L957.8,464.3z M956.9,461.5L956.9,461.5L956.9,461.5c-0.1-0.2-0.1-0.3-0.2-0.5h0C956.8,461.2,956.8,461.3,956.9,461.5L956.9,461.5z
		 M957.4,464.3L957.4,464.3l0.2,0.1L957.4,464.3z M957.8,464.6L957.8,464.6L957.8,464.6L957.8,464.6z M974.9,545.8
		C974.9,545.8,974.9,545.8,974.9,545.8L974.9,545.8L974.9,545.8z"/>
	<path class="st5" d="M934.5,794.9l35.5,76.4l-75.7-35.2l-16.1,53.1l-20-65.9C775,887.2,658,919.1,538.7,919.1
		c-119.3,0-236.3-32-319.4-95.8l-20,65.9l-16.6-54.6l-76.5,35.5l35.2-75.7l-53.1-16.1L155,758c-1-1.3-1.9-2.6-2.8-4
		c55.1,4.8,110.8,7.2,167.2,7.2c228.7,0,448.1-40.1,651.5-113.6c-8.4,41.6-25.2,78.3-48.5,110.4l-0.6-0.2v0.9
		c0.2-0.3,0.4-0.5,0.6-0.8l66.7,20.3L934.5,794.9z"/>
	<path class="st6" d="M944.9,428.3c-0.3-0.7-0.6-1.4-0.9-2.1c-1.3-3.3-2.7-6.5-4.1-9.8c-0.4-0.8-0.7-1.6-1.1-2.4
		c-0.8-1.8-1.6-3.5-2.4-5.3c-0.9-1.9-1.8-3.8-2.7-5.8c-0.9-2-1.9-4-2.8-6c-1-2-1.9-4-2.9-6c-0.8-1.7-1.7-3.4-2.5-5
		c-0.8-1.7-1.7-3.3-2.6-5c-0.2-0.3-0.3-0.6-0.5-0.8c-0.7-1.4-1.5-2.8-2.2-4.1c-0.4-0.8-0.9-1.6-1.3-2.4c0.2,0.3,0.3,0.5,0.4,0.8
		c-1-1.9-2-3.7-3.1-5.6c-1.1-1.9-2.1-3.7-3.2-5.6c-0.4-0.7-0.8-1.4-1.2-2.1c-0.6-1-1.2-2-1.7-3c-0.1-0.2-0.2-0.3-0.3-0.5
		c-0.2-0.4-0.4-0.8-0.7-1.1c-0.9-1.5-1.7-3-2.6-4.4c-1.1-1.8-2.2-3.7-3.4-5.5c-0.1-0.2-0.1-0.3-0.3-0.4c-1.1-1.7-2.1-3.4-3.2-5
		c-0.1-0.1-0.2-0.3-0.3-0.4l-0.9-1.4c-0.5-0.8-1-1.6-1.6-2.4c-0.7-1.2-1.5-2.3-2.2-3.4c-0.5-0.8-1.1-1.6-1.6-2.4
		c-0.1-0.3-0.3-0.5-0.5-0.7c-0.2-0.4-0.5-0.7-0.7-1.1c-0.9-1.4-1.9-2.9-2.9-4.3c-0.8-1.2-1.6-2.4-2.5-3.6c-0.2-0.3-0.4-0.6-0.6-0.9
		c-0.2-0.3-0.4-0.6-0.6-0.9c-0.8-1.2-1.7-2.4-2.5-3.6c-0.2-0.3-0.4-0.5-0.6-0.8c-0.2-0.3-0.4-0.6-0.6-0.8c-0.1-0.2-0.3-0.4-0.5-0.6
		c-0.6-0.9-1.3-1.9-2-2.8c-0.4-0.6-0.9-1.2-1.3-1.8c0,0,0,0,0,0c0-0.1-0.1-0.1-0.2-0.2c0-0.1-0.1-0.2-0.1-0.2
		c-0.4-0.5-0.8-1.1-1.2-1.6c-0.6-0.8-1.2-1.7-1.8-2.5c-0.1-0.2-0.3-0.3-0.4-0.5c-0.8-1-1.5-2-2.3-3c-0.6-0.8-1.2-1.6-1.8-2.4
		c-1.3-1.7-2.6-3.4-4-5.1c-0.4-0.6-0.9-1.1-1.3-1.7c-0.2-0.2-0.4-0.5-0.6-0.7c-0.7-0.9-1.4-1.8-2.1-2.7c-0.3-0.4-0.6-0.8-1-1.2
		c-1-1.3-2-2.5-3-3.7h0c0,0-0.1-0.1-0.1-0.1l-0.1,0l0,0h0v-0.3h0v0c0,0,0.1,0,0.1,0.1c0,0,0,0.1,0,0.1h0l9.9-3l0,0l30.8-9.4l0.4-0.1
		l27.8-8.4l0,0h0l-53-16.1l35.2-75.7l-76.4,35.5L816,151.6l0,0.1l-15.5,50.8l0,0l-0.2,0.5l0,0.1l-4.8,16c0,0-0.1-0.1-0.1-0.1
		c-4-3.5-8.1-7-12.2-10.3c-3.8-3.1-7.5-6.1-11.4-9.1c-0.3-0.2-0.6-0.4-0.9-0.7c-1.8-1.4-3.6-2.8-5.5-4.2c-2-1.5-4.1-3.1-6.2-4.6
		c-4.1-3-8.3-6-12.5-8.8c-2.1-1.4-4.2-2.8-6.3-4.2c-4.2-2.8-8.5-5.5-12.8-8.1c-0.1-0.1-0.3-0.2-0.4-0.2
		C551,271,356.9,346.1,150.8,387.9h0c-3.1,6.1-6,12.3-8.9,18.4c-0.6,1.4-1.3,2.9-1.9,4.3c-0.6,1.3-1.1,2.5-1.7,3.8
		c-0.9,1.9-1.7,3.9-2.5,5.8c-1.6,3.8-3.2,7.7-4.7,11.6c-0.1,0.2-0.1,0.3-0.2,0.5c-0.7,1.8-1.4,3.7-2.1,5.5c-0.8,2-1.5,3.9-2.2,5.9
		c-0.7,2-1.4,3.9-2.1,5.9c-1.4,3.9-2.7,7.9-4,11.8l0,0c-0.1,0.3-0.2,0.6-0.3,0.8c0.1-0.3,0.2-0.5,0.3-0.8l-25-20.2L66,417.3l0,0
		l16.4,52.9L0,483.7l72.2,43.4l-35.9,44.3h0l65.6-20.3c-0.1,1.3-0.3,2.7-0.3,4c-0.3,2.8-0.5,5.7-0.6,8.5c-0.1,1.7-0.2,3.3-0.3,5
		c-0.1,1.8-0.2,3.5-0.2,5.3c0,1.8-0.1,3.5-0.1,5.2c0,1.8,0,3.5,0,5.2c0,0.7,0,1.4,0,2.2c0,0.7,0,1.4,0,2.2v1.3
		c0,1.6,0.1,3.2,0.1,4.8c0,1.7,0.1,3.4,0.2,5.2c0.1,1.8,0.2,3.6,0.3,5.4c0.1,1.9,0.3,3.9,0.4,5.8c0,0.5,0,1,0.1,1.4
		c0.1,0.8,0.1,1.7,0.2,2.6c0.1,0.7,0.1,1.4,0.2,2.1c0.1,0.9,0.2,1.8,0.3,2.7c0,0,0,0.1,0,0.1c0.1,1.3,0.3,2.5,0.4,3.7
		c0,0.4,0.1,0.8,0.2,1.2c0.1,1.1,0.3,2.3,0.4,3.4c0.1,0.5,0.2,1,0.2,1.5c0.2,1.3,0.4,2.5,0.5,3.7c0.1,0.4,0.1,0.8,0.2,1.1
		c0,0.3,0.1,0.5,0.1,0.7c0.2,1.1,0.4,2.2,0.5,3.2c0.1,0.9,0.3,1.8,0.5,2.7c0,0.3,0.1,0.5,0.1,0.8c0.2,1.3,0.5,2.7,0.8,4
		c0,0.1,0,0.2,0,0.2c0.2,0.9,0.4,1.8,0.6,2.7c302.3-8,587.1-86.1,838.9-218.5C945.4,429.7,945.1,429,944.9,428.3z M119.9,464.3
		l-0.2,0.1l-0.2,0.2c0,0,0,0,0,0v0c0,0,0,0,0,0c0,0,0,0,0,0v0c0,0,0,0,0,0c0,0,0,0,0,0h0L119.9,464.3l0.8-0.6L119.9,464.3z
		 M121.1,463.5l1-0.7l0,0L121.1,463.5z M857.1,282.3L857.1,282.3C857.1,282.3,857.1,282.3,857.1,282.3L857.1,282.3L857.1,282.3z"/>
</g>
<path class="st0" d="M1440.3,525.6L1440.3,525.6C1440.3,525.6,1440.3,525.6,1440.3,525.6L1440.3,525.6z"/>
<path class="st0" d="M1440.5,525.4c0,0-0.1,0.1-0.1,0.2v-0.4L1440.5,525.4z"/>
<path class="st1" d="M1440.3,525.6L1440.3,525.6C1440.3,525.6,1440.3,525.6,1440.3,525.6L1440.3,525.6z"/>
<path class="st1" d="M1440.5,525.4c0,0-0.1,0.1-0.1,0.2v-0.4L1440.5,525.4z"/>
<path class="st1" d="M1440.3,525.6L1440.3,525.6C1440.3,525.6,1440.3,525.6,1440.3,525.6L1440.3,525.6z"/>
<path class="st1" d="M1440.5,525.4c0,0-0.1,0.1-0.1,0.2v-0.4L1440.5,525.4z"/>
<path class="st2" d="M1340.6,532.5c-0.1,0.1-0.1,0.2-0.2,0.3v-0.4L1340.6,532.5z"/>
<path class="st6" d="M795.4,218.9l4.9-15.8l-4.8,16C795.4,219,795.4,218.9,795.4,218.9z"/>
<path class="st6" d="M857.1,282.3L857.1,282.3L857.1,282.3L857.1,282.3C857.1,282.3,857.1,282.3,857.1,282.3z"/>
</svg>
